<?xml version="1.0" encoding="UTF-8" standalone="no"?>
<!-- Created with Inkscape (http://www.inkscape.org/) -->

<svg
   width="99.316505mm"
   height="46.895218mm"
   viewBox="0 0 99.316505 46.895218"
   version="1.1"
   id="svg5"
   inkscape:version="1.1 (c68e22c387, 2021-05-23)"
   sodipodi:docname="Fondo3.svg"
   xmlns:inkscape="http://www.inkscape.org/namespaces/inkscape"
   xmlns:sodipodi="http://sodipodi.sourceforge.net/DTD/sodipodi-0.dtd"
   xmlns="http://www.w3.org/2000/svg"
   xmlns:svg="http://www.w3.org/2000/svg">
  <sodipodi:namedview
     id="namedview7"
     pagecolor="#ffffff"
     bordercolor="#666666"
     borderopacity="1.0"
     inkscape:pageshadow="2"
     inkscape:pageopacity="0.0"
     inkscape:pagecheckerboard="0"
     inkscape:document-units="mm"
     showgrid="false"
     inkscape:zoom="2.8284271"
     inkscape:cx="187.02974"
     inkscape:cy="73.539105"
     inkscape:window-width="2040"
     inkscape:window-height="1058"
     inkscape:window-x="2869"
     inkscape:window-y="-11"
     inkscape:window-maximized="1"
     inkscape:current-layer="layer1" />
  <defs
     id="defs2">
    <linearGradient
       id="linearGradient4592"
       inkscape:swatch="solid">
      <stop
         style="stop-color:#ffff00;stop-opacity:1;"
         offset="0"
         id="stop4590" />
    </linearGradient>
  </defs>
  <g
     inkscape:label="Capa 1"
     inkscape:groupmode="layer"
     id="layer1"
     transform="translate(-0.474738,-70.295604)">
    <g
       id="layer3"
       inkscape:label="Capa 3"
       transform="translate(-55.031235,-31.480916)" />
    <path
       sodipodi:type="star"
       style="fill:#ffff00;stroke:none"
       id="path1136"
       inkscape:flatsided="false"
       sodipodi:sides="7"
       sodipodi:cx="88.052505"
       sodipodi:cy="289.78662"
       sodipodi:r1="2.7912898"
       sodipodi:r2="1.3956448"
       sodipodi:arg1="0"
       sodipodi:arg2="0.44879895"
       inkscape:rounded="-0.04"
       inkscape:randomized="0"
       transform="scale(0.26458333)"
       inkscape:transform-center-x="-0.036521769"
       d="m 90.843795,289.78662 c 0,-0.066 -1.562477,0.66498 -1.533857,0.60555 0.02862,-0.0594 0.431337,1.6179 0.482908,1.57677 0.05157,-0.0411 -1.494089,-0.80699 -1.42978,-0.82167 0.06431,-0.0147 -0.99599,1.34598 -0.931681,1.36066 0.06431,0.0147 -0.300621,-1.67128 -0.24905,-1.63015 0.05157,0.0411 -1.673315,0.0605 -1.644695,0.11994 0.02862,0.0594 1.119221,-1.27706 1.119221,-1.2111 0,0.066 -1.090601,-1.27052 -1.119221,-1.21109 -0.02862,0.0594 1.696267,0.0788 1.644695,0.11993 -0.05157,0.0411 0.313359,-1.64482 0.24905,-1.63015 -0.06431,0.0147 0.995989,1.37534 0.931681,1.36066 -0.06431,-0.0147 1.481352,-0.78054 1.42978,-0.82167 -0.05157,-0.0411 -0.454288,1.6362 -0.482908,1.57677 -0.02862,-0.0594 1.533857,0.67151 1.533857,0.60555 z" />
    <path
       sodipodi:type="star"
       style="fill:#ffff00;stroke:none"
       id="path1306"
       inkscape:flatsided="false"
       sodipodi:sides="7"
       sodipodi:cx="108.35279"
       sodipodi:cy="286.74158"
       sodipodi:r1="5.9185004"
       sodipodi:r2="2.9592502"
       sodipodi:arg1="1.0303768"
       sodipodi:arg2="1.4791758"
       inkscape:rounded="-0.04"
       inkscape:randomized="0"
       transform="scale(0.26458333)"
       inkscape:transform-center-x="-0.031838995"
       inkscape:transform-center-y="-0.046072632"
       d="m 111.39783,291.81665 c 0.11994,-0.072 -2.91357,-2.11544 -2.77429,-2.12823 0.13928,-0.0128 -2.47108,2.54922 -2.34005,2.59812 0.13104,0.0489 -0.16266,-3.59687 -0.0658,-3.49596 0.0968,0.10091 -3.53376,-0.34255 -3.49029,-0.20961 0.0435,0.13293 2.71072,-2.3698 2.69221,-2.23117 -0.0185,0.13864 -1.93545,-2.97638 -2.01228,-2.85951 -0.0768,0.11687 3.54289,0.64179 3.42296,0.71375 -0.11993,0.072 1.1203,-3.36894 0.98102,-3.35614 -0.13927,0.0128 1.70719,3.17009 1.57615,3.12119 -0.13104,-0.0489 3.33244,-1.22461 3.23559,-1.32552 -0.0968,-0.10091 -1.41406,3.31125 -1.45753,3.17831 -0.0435,-0.13293 3.03518,1.84187 3.0537,1.70324 0.0185,-0.13863 -3.4705,0.95897 -3.39367,0.8421 0.0768,-0.11687 0.45237,3.52139 0.5723,3.44943 z" />
    <path
       sodipodi:type="star"
       style="fill:#ffff00;stroke:none"
       id="path1308"
       inkscape:flatsided="false"
       sodipodi:sides="7"
       sodipodi:cx="95.918861"
       sodipodi:cy="311.60944"
       sodipodi:r1="3.6331987"
       sodipodi:r2="1.8165994"
       sodipodi:arg1="0.43240778"
       sodipodi:arg2="0.88120673"
       inkscape:rounded="-0.04"
       inkscape:randomized="0"
       transform="scale(0.26458333)"
       inkscape:transform-center-x="0.044117822"
       inkscape:transform-center-y="-0.0035024653"
       d="m 99.217658,313.13196 c 0.03598,-0.078 -2.209279,-0.0664 -2.143039,-0.121 0.06624,-0.0546 -0.372728,2.14733 -0.289347,2.12686 0.08338,-0.0205 -1.325567,-1.76867 -1.241559,-1.75094 0.08401,0.0177 -1.911247,1.04743 -1.843252,1.09985 0.06799,0.0524 0.556324,-2.13912 0.59484,-2.06238 0.03852,0.0767 -2.010558,-0.84121 -2.00915,-0.75536 0.0014,0.0858 2.019291,-0.89877 1.983312,-0.82081 -0.03598,0.0779 -0.595877,-2.09641 -0.662118,-2.04178 -0.06624,0.0546 1.961692,1.01837 1.878311,1.03885 -0.08338,0.0205 1.26751,-1.77297 1.183503,-1.7907 -0.08401,-0.0177 0.426897,2.16866 0.358902,2.11624 -0.06799,-0.0524 2.176437,-0.11445 2.137922,-0.19118 -0.03852,-0.0767 -1.429359,1.6859 -1.430766,1.60005 -0.0014,-0.0858 1.446462,1.63025 1.482441,1.5523 z" />
    <path
       sodipodi:type="star"
       style="fill:#ffff00;stroke:none"
       id="path1310"
       inkscape:flatsided="false"
       sodipodi:sides="7"
       sodipodi:cx="68.25972"
       sodipodi:cy="336.9848"
       sodipodi:r1="2.8708942"
       sodipodi:r2="1.4354472"
       sodipodi:arg1="0.78539816"
       sodipodi:arg2="1.2341971"
       inkscape:rounded="-0.04"
       inkscape:randomized="0"
       transform="scale(0.26458333)"
       inkscape:transform-center-x="-0.01889996"
       inkscape:transform-center-y="0.018899064"
       d="m 70.289749,339.01483 c 0.04797,-0.048 -1.619967,-0.65273 -1.555931,-0.67513 0.06404,-0.0224 -0.862953,1.49035 -0.795536,1.49794 0.06742,0.008 -0.499711,-1.6735 -0.442266,-1.63741 0.05745,0.0361 -1.703247,0.25454 -1.667152,0.31198 0.0361,0.0574 0.996838,-1.43411 1.004434,-1.36669 0.0076,0.0674 -1.26096,-1.17295 -1.283367,-1.10891 -0.02241,0.064 1.742747,-0.11479 1.694774,-0.0668 -0.04797,0.048 0.130855,-1.71718 0.06682,-1.69478 -0.06404,0.0224 1.176332,1.29097 1.108915,1.28337 -0.06742,-0.008 1.424134,-0.96834 1.366689,-1.00443 -0.05745,-0.0361 -0.275885,1.72459 -0.31198,1.66715 -0.0361,-0.0574 1.645011,0.50968 1.637414,0.44226 -0.0076,-0.0674 -1.520355,0.85958 -1.497947,0.79554 0.02241,-0.064 0.627161,1.6039 0.675134,1.55593 z" />
    <path
       sodipodi:type="star"
       style="fill:#ffff00;stroke:none"
       id="path1316"
       inkscape:flatsided="false"
       sodipodi:sides="7"
       sodipodi:cx="38.570549"
       sodipodi:cy="334.70102"
       sodipodi:r1="2.8370516"
       sodipodi:r2="1.4185258"
       sodipodi:arg1="0.46364761"
       sodipodi:arg2="0.91244656"
       inkscape:rounded="-0.04"
       inkscape:randomized="0"
       transform="scale(0.26458333)"
       inkscape:transform-center-x="0.034701858"
       inkscape:transform-center-y="0.0024757571"
       d="m 41.108085,335.96979 c 0.02998,-0.06 -1.722696,-0.10569 -1.669664,-0.14671 0.05303,-0.041 -0.343284,1.66688 -0.277707,1.65293 0.06558,-0.0139 -0.99145,-1.41276 -0.926316,-1.39687 0.06513,0.0159 -1.517252,0.77089 -1.465461,0.81347 0.05179,0.0426 0.486377,-1.65599 0.514567,-1.59516 0.02819,0.0608 -1.548698,-0.70559 -1.549694,-0.63856 -9.95e-4,0.067 1.597954,-0.65222 1.567971,-0.59225 -0.02998,0.06 -0.413943,-1.65076 -0.466975,-1.60974 -0.05303,0.041 1.506238,0.84268 1.44066,0.85662 -0.06558,0.014 1.03252,-1.35286 0.967386,-1.36874 -0.06513,-0.0159 0.280294,1.70302 0.228503,1.66045 -0.05179,-0.0426 1.701474,-0.0362 1.673285,-0.0971 -0.02819,-0.0608 -1.156717,1.28096 -1.155722,1.21392 9.96e-4,-0.067 1.089184,1.30767 1.119167,1.24771 z" />
    <path
       sodipodi:type="star"
       style="fill:#ffff00;stroke:none"
       id="path1318"
       inkscape:flatsided="false"
       sodipodi:sides="7"
       sodipodi:cx="72.319778"
       sodipodi:cy="318.20703"
       sodipodi:r1="2.3394928"
       sodipodi:r2="1.1697463"
       sodipodi:arg1="0.86217005"
       sodipodi:arg2="1.310969"
       inkscape:rounded="-0.04"
       inkscape:randomized="0"
       transform="scale(0.26458333)"
       inkscape:transform-center-x="-0.02584054"
       inkscape:transform-center-y="0.0048713186"
       d="m 73.8423,319.98331 c 0.04198,-0.036 -1.275428,-0.63159 -1.221998,-0.6458 0.05343,-0.0142 -0.794296,1.15698 -0.739995,1.16737 0.0543,0.0104 -0.30142,-1.39096 -0.257002,-1.35805 0.04442,0.0329 -1.399797,0.10036 -1.37406,0.14929 0.02574,0.0489 0.899563,-1.10291 0.901521,-1.04766 0.002,0.0553 -0.951221,-1.03183 -0.973429,-0.9812 -0.02221,0.0506 1.423157,0.0156 1.381181,0.0516 -0.04198,0.036 0.213643,-1.38703 0.160213,-1.37282 -0.05343,0.0142 0.875085,1.12242 0.820783,1.11204 -0.0543,-0.0104 1.21763,-0.69777 1.173212,-0.73069 -0.04442,-0.0329 -0.331944,1.384 -0.357681,1.33507 -0.02574,-0.0489 1.304716,0.51693 1.302758,0.46168 -0.002,-0.0553 -1.289012,0.60338 -1.266804,0.55275 0.02221,-0.0506 0.409325,1.34237 0.451301,1.30639 z" />
    <path
       sodipodi:type="star"
       style="fill:#ffff00;stroke:none"
       id="path1320"
       inkscape:flatsided="false"
       sodipodi:sides="7"
       sodipodi:cx="101.7552"
       sodipodi:cy="330.38721"
       sodipodi:r1="2.3394928"
       sodipodi:r2="1.1697463"
       sodipodi:arg1="0.86217005"
       sodipodi:arg2="1.310969"
       inkscape:rounded="-0.04"
       inkscape:randomized="0"
       transform="scale(0.26458333)"
       inkscape:transform-center-x="-0.025840442"
       inkscape:transform-center-y="0.004871278"
       d="m 103.27772,332.16348 c 0.042,-0.036 -1.27542,-0.63159 -1.22199,-0.64579 0.0534,-0.0142 -0.7943,1.15698 -0.74,1.16736 0.0543,0.0104 -0.30142,-1.39096 -0.257,-1.35804 0.0444,0.0329 -1.399797,0.10036 -1.37406,0.14929 0.02574,0.0489 0.89956,-1.10291 0.90152,-1.04766 0.002,0.0553 -0.95122,-1.03183 -0.973428,-0.9812 -0.02221,0.0506 1.423158,0.0157 1.381178,0.0516 -0.042,0.036 0.21365,-1.38703 0.16022,-1.37283 -0.0534,0.0142 0.87508,1.12243 0.82078,1.11204 -0.0543,-0.0104 1.21763,-0.69776 1.17321,-0.73068 -0.0444,-0.0329 -0.33194,1.38399 -0.35768,1.33506 -0.0257,-0.0489 1.30472,0.51693 1.30276,0.46168 -0.002,-0.0553 -1.28901,0.60338 -1.26681,0.55275 0.0222,-0.0506 0.40933,1.34237 0.4513,1.30639 z" />
    <path
       sodipodi:type="star"
       style="fill:#ffff00;stroke:none"
       id="path1322"
       inkscape:flatsided="false"
       sodipodi:sides="7"
       sodipodi:cx="322.26709"
       sodipodi:cy="367.68896"
       sodipodi:r1="2.5375361"
       sodipodi:r2="1.268768"
       sodipodi:arg1="0.92729522"
       sodipodi:arg2="1.3760942"
       inkscape:rounded="-0.04"
       inkscape:randomized="0"
       transform="scale(0.26458333)"
       inkscape:transform-center-x="-0.028866576"
       inkscape:transform-center-y="-0.0044315038"
       d="m 323.78961,369.71899 c 0.048,-0.036 -1.33588,-0.77363 -1.27705,-0.78523 0.0588,-0.0116 -0.94137,1.19619 -0.88333,1.21126 0.058,0.0151 -0.22806,-1.52678 -0.18231,-1.48802 0.0457,0.0388 -1.52216,0.01 -1.49775,0.0646 0.0244,0.0548 1.05149,-1.13024 1.04971,-1.0703 -0.002,0.0599 -0.95672,-1.18395 -0.98433,-1.13072 -0.0276,0.0532 1.53925,0.1174 1.49128,0.15338 -0.048,0.036 0.32914,-1.48618 0.27031,-1.47458 -0.0588,0.0116 0.86792,1.27664 0.80988,1.26157 -0.058,-0.0151 1.36716,-0.66928 1.32141,-0.70805 -0.0457,-0.0388 -0.45698,1.47454 -0.48138,1.41976 -0.0244,-0.0548 1.37568,0.6516 1.37746,0.59166 0.002,-0.0599 -1.43776,0.56208 -1.41015,0.50885 0.0276,-0.0532 0.34828,1.48181 0.39625,1.44583 z" />
    <path
       sodipodi:type="star"
       style="fill:#ffff00;stroke:none"
       id="path1324"
       inkscape:flatsided="false"
       sodipodi:sides="7"
       sodipodi:cx="272.78513"
       sodipodi:cy="314.90823"
       sodipodi:r1="4.4388752"
       sodipodi:r2="2.2194376"
       sodipodi:arg1="1.0303768"
       sodipodi:arg2="1.4791758"
       inkscape:rounded="-0.04"
       inkscape:randomized="0"
       transform="scale(0.26458333)"
       inkscape:transform-center-x="-0.023878608"
       inkscape:transform-center-y="-0.034554807"
       d="m 275.06891,318.71454 c 0.0899,-0.054 -2.18518,-1.58658 -2.08072,-1.59618 0.10445,-0.01 -1.85331,1.91192 -1.75504,1.9486 0.0983,0.0367 -0.122,-2.69766 -0.0494,-2.62197 0.0726,0.0757 -2.65032,-0.25692 -2.61772,-0.15722 0.0326,0.0997 2.03305,-1.77734 2.01916,-1.67337 -0.0139,0.10398 -1.45158,-2.23228 -1.5092,-2.14463 -0.0576,0.0876 2.65716,0.48134 2.56721,0.53531 -0.0899,0.054 0.84023,-2.5267 0.73577,-2.5171 -0.10446,0.01 1.28039,2.37757 1.18211,2.34089 -0.0983,-0.0367 2.49933,-0.91846 2.4267,-0.99414 -0.0726,-0.0757 -1.06055,2.48344 -1.09315,2.38373 -0.0326,-0.0997 2.27638,1.38141 2.29027,1.27743 0.0139,-0.10397 -2.60287,0.71923 -2.54525,0.63158 0.0576,-0.0877 0.33928,2.64104 0.42923,2.58707 z" />
    <path
       sodipodi:type="star"
       style="fill:#ffff00;stroke:none"
       id="path1326"
       inkscape:flatsided="false"
       sodipodi:sides="7"
       sodipodi:cx="349.92621"
       sodipodi:cy="348.91122"
       sodipodi:r1="3.6065164"
       sodipodi:r2="1.8032582"
       sodipodi:arg1="0.88506682"
       sodipodi:arg2="1.3338658"
       inkscape:rounded="-0.04"
       inkscape:randomized="0"
       transform="scale(0.26458333)"
       inkscape:transform-center-x="-0.044592994"
       inkscape:transform-center-y="0.0026560748"
       d="m 352.20999,351.70251 c 0.066,-0.054 -1.94337,-1.0184 -1.86052,-1.03841 0.0829,-0.02 -1.26499,1.75508 -1.18166,1.773 0.0833,0.0179 -0.41545,-2.15435 -0.34816,-2.10205 0.0673,0.0523 -2.16088,0.10526 -2.12294,0.18158 0.0379,0.0763 1.42531,-1.66803 1.42638,-1.58281 0.001,0.0852 -1.42958,-1.62381 -1.46559,-1.54656 -0.036,0.0772 2.19278,0.0743 2.12682,0.12832 -0.066,0.054 0.37821,-2.13012 0.29537,-2.11012 -0.0829,0.02 1.30904,1.76075 1.22572,1.74283 -0.0833,-0.0179 1.90121,-1.03241 1.83392,-1.08471 -0.0673,-0.0523 -0.56044,2.12126 -0.59837,2.04494 -0.0379,-0.0763 1.99255,0.84273 1.99148,0.75751 -0.001,-0.0852 -2.00789,0.88442 -1.97188,0.80718 0.036,-0.0772 0.58347,2.08327 0.64943,2.0293 z" />
    <path
       sodipodi:type="star"
       style="fill:#ffff00;stroke:none"
       id="path1330"
       inkscape:flatsided="false"
       sodipodi:sides="7"
       sodipodi:cx="93.888832"
       sodipodi:cy="362.10641"
       sodipodi:r1="3.2987969"
       sodipodi:r2="1.6493984"
       sodipodi:arg1="0"
       sodipodi:arg2="0.44879895"
       inkscape:rounded="-0.04"
       inkscape:randomized="0"
       transform="scale(0.26458333)"
       inkscape:transform-center-x="-0.043162125"
       inkscape:transform-center-y="-1.2070213e-06"
       d="m 97.187629,362.10641 c 0,-0.0779 -1.846564,0.78589 -1.81274,0.71565 0.03382,-0.0702 0.509761,1.91206 0.570709,1.86346 0.06095,-0.0486 -1.765741,-0.95371 -1.68974,-0.97106 0.076,-0.0173 -1.177078,1.5907 -1.101077,1.60804 0.076,0.0174 -0.35528,-1.97514 -0.294332,-1.92653 0.06095,0.0486 -1.977554,0.0715 -1.94373,0.14174 0.03382,0.0702 1.322715,-1.50925 1.322715,-1.4313 0,0.078 -1.288892,-1.50153 -1.322715,-1.43129 -0.03382,0.0702 2.004678,0.0931 1.94373,0.14174 -0.06095,0.0486 0.370333,-1.94388 0.294332,-1.92653 -0.076,0.0173 1.177078,1.62539 1.101077,1.60804 -0.076,-0.0174 1.750689,-0.92245 1.68974,-0.97106 -0.06095,-0.0486 -0.536886,1.93369 -0.570709,1.86346 -0.03382,-0.0702 1.81274,0.7936 1.81274,0.71564 z" />
  </g>
</svg>
