<?xml version="1.0" encoding="UTF-8" standalone="no"?>
<!-- Created with Inkscape (http://www.inkscape.org/) -->

<svg
   width="353.14761mm"
   height="42.897835mm"
   viewBox="0 0 353.14761 42.897835"
   version="1.1"
   id="svg367"
   inkscape:version="1.1 (c68e22c387, 2021-05-23)"
   sodipodi:docname="landscape.svg"
   xmlns:inkscape="http://www.inkscape.org/namespaces/inkscape"
   xmlns:sodipodi="http://sodipodi.sourceforge.net/DTD/sodipodi-0.dtd"
   xmlns="http://www.w3.org/2000/svg"
   xmlns:svg="http://www.w3.org/2000/svg">
  <sodipodi:namedview
     id="namedview369"
     pagecolor="#ffffff"
     bordercolor="#666666"
     borderopacity="1.0"
     inkscape:pageshadow="2"
     inkscape:pageopacity="0.0"
     inkscape:pagecheckerboard="0"
     inkscape:document-units="mm"
     showgrid="false"
     inkscape:zoom="0.64"
     inkscape:cx="1052.3438"
     inkscape:cy="309.375"
     inkscape:window-width="1920"
     inkscape:window-height="986"
     inkscape:window-x="-11"
     inkscape:window-y="-11"
     inkscape:window-maximized="1"
     inkscape:current-layer="layer1"
     inkscape:snap-page="false" />
  <defs
     id="defs364" />
  <g
     inkscape:label="Capa 1"
     inkscape:groupmode="layer"
     id="layer1"
     transform="translate(60.356425,-116.41681)">
    <path
       style="fill:#000000;stroke:#000000;stroke-width:0.264583px;stroke-linecap:butt;stroke-linejoin:miter;stroke-opacity:1"
       d="m -60.223526,125.41145 2.819838,0.40283 4.498311,-3.49123 h 1.947029 l 3.021255,3.96121 7.183869,1.67847 0.60425,-1.07422 2.215587,1.40992 2.484143,0.13427 1.409917,1.94703 7.385288,-1.61133 1.745613,0.80566 4.028339,-1.81275 3.961199,-0.46997 4.766868,1.61134 3.8940596,2.68555 1.477058,3.02126 2.349864,-0.40284 8.728066,-8.25809 7.1838714,-2.08131 6.243924,4.69973 5.102562,4.16262 3.894061,-1.40992 7.049592,-5.10256 11.077931,-3.89407 2.68556,0.87281 2.685558,-2.28272 4.968285,5.10256 4.901144,0.87281 9.533734,-1.74562 3.625506,1.87989 5.102561,-4.09547 5.438256,-0.20142 8.325234,-4.69973 h 2.954115 l 1.477058,-0.73853 0.872807,3.28981 3.088393,0.26856 6.17678,1.2085 8.79521,1.61134 4.63259,2.417 7.5867,-5.70681 4.22976,-1.34278 1.54419,0.80566 2.14845,2.81984 5.77395,0.67139 3.89406,2.01417 5.10256,-1.5442 h 4.834 l 3.42409,-0.40283 7.45243,2.7527 2.95411,1.34278 6.10965,-3.0884 2.95411,1.40992 3.42409,-2.68556 2.95411,1.07423 0.87281,1.54419 4.56545,0.46998 3.62551,1.54419 2.21558,-2.34986 3.22267,-1.47706 3.82693,1.27564 2.34986,-2.21558 7.45242,0.60425 1.34279,1.34278 1.94703,-2.28273 1.87989,0.13428 4.16261,-2.88698 1.81275,1.00709 4.09548,-2.21559 4.43117,-2.14845 h 3.0884 l 3.22267,1.20851 3.69264,-0.60425 3.08839,2.88697 3.15554,-0.80567 7.31815,0.93995 5.37111,1.47706 3.0884,0.53711 3.02125,-1.61134 5.37112,2.61842 3.42409,-1.07422 5.90821,-1.40992 3.96121,1.14136 6.64676,-2.14845 v 39.47772 H -60.089246 Z"
       id="path162" />
  </g>
</svg>
