<?xml version="1.0" encoding="UTF-8" standalone="no"?>
<!-- Created with Inkscape (http://www.inkscape.org/) -->

<svg
   version="1.1"
   id="svg2"
   width="799.41858"
   height="511.83417"
   viewBox="0 0 799.41858 511.83417"
   sodipodi:docname="arrow.svg"
   inkscape:version="1.1 (c68e22c387, 2021-05-23)"
   xmlns:inkscape="http://www.inkscape.org/namespaces/inkscape"
   xmlns:sodipodi="http://sodipodi.sourceforge.net/DTD/sodipodi-0.dtd"
   xmlns="http://www.w3.org/2000/svg"
   xmlns:svg="http://www.w3.org/2000/svg">
  <defs
     id="defs6" />
  <sodipodi:namedview
     id="namedview4"
     pagecolor="#ffffff"
     bordercolor="#666666"
     borderopacity="1.0"
     inkscape:pageshadow="2"
     inkscape:pageopacity="0.0"
     inkscape:pagecheckerboard="0"
     showgrid="false"
     inkscape:zoom="0.81311044"
     inkscape:cx="340.66713"
     inkscape:cy="196.16031"
     inkscape:window-width="1440"
     inkscape:window-height="837"
     inkscape:window-x="1912"
     inkscape:window-y="18"
     inkscape:window-maximized="1"
     inkscape:current-layer="g8" />
  <g
     inkscape:groupmode="layer"
     inkscape:label="Image"
     id="g8"
     transform="translate(79.697301,235.56371)">
    <path
       style="fill:#ffffff"
       d="m -71.20368,-233.31165 c -2.435112,1.38573 -4.846833,3.94169 -6.353559,6.73355 -2.354075,4.36195 -2.410496,4.96018 -1.839109,19.5 3.732735,94.98514 44.803681,171.491563 124.117642,231.204713 66.523946,50.08393 167.000246,88.943207 270.499996,104.616057 l 14.5,2.19572 0.5,66.99176 c 0.49907,66.86781 0.50407,66.9983 2.70059,70.52984 3.37597,5.42785 9.27141,8.29482 15.92267,7.74325 5.13782,-0.42607 7.07655,-1.55497 35.15721,-20.47165 51.26894,-34.53758 232.70653,-156.590667 279.21953,-187.830997 55.1441,-37.0374 51.31489,-34.32078 54.13452,-38.40542 1.80344,-2.61254 2.36548,-4.76835 2.36548,-9.07327 0,-9.10686 -1.55597,-10.6153799 -31.98742,-31.01186 -14.85692,-9.95775 -52.66258,-35.37565 -84.01258,-56.484221 -31.35,-21.10857 -69.375,-46.695192 -84.5,-56.859142 -15.125,-10.16396 -52.025,-34.98947 -82,-55.1678 -29.975,-20.17833 -60.82862,-40.93011 -68.5636,-46.11505 -14.52188,-9.73437 -18.18849,-11.19382 -24.94018,-9.9272 -5.23415,0.98193 -11.01411,6.59354 -12.38047,12.01988 -0.76757,3.0483 -1.11575,26.03081 -1.11575,73.64868 v 69.217652 l -31.25,-0.64478 c -51.83972,-1.06961 -100.68211,-4.82872 -132.39913,-10.18997 -53.67557,-9.072982 -101.493326,-27.356732 -139.350866,-53.282642 -30.3367406,-20.77545 -57.494881,-49.56672 -70.856883,-75.11777 -2.773527,-5.30359 -6.077852,-10.61257 -7.342945,-11.79772 -5.128518,-4.80448 -13.809972,-5.67223 -20.225146,-2.02161 z"
       id="path845" />
  </g>
</svg>
