<?xml version="1.0" encoding="UTF-8" standalone="no"?>
<!-- Created with Inkscape (http://www.inkscape.org/) -->

<svg
   width="19.186758mm"
   height="24.502254mm"
   viewBox="0 0 19.186758 24.502254"
   version="1.1"
   id="svg5"
   inkscape:version="1.1 (c68e22c387, 2021-05-23)"
   sodipodi:docname="LV-Isotipo.svg"
   xmlns:inkscape="http://www.inkscape.org/namespaces/inkscape"
   xmlns:sodipodi="http://sodipodi.sourceforge.net/DTD/sodipodi-0.dtd"
   xmlns="http://www.w3.org/2000/svg"
   xmlns:svg="http://www.w3.org/2000/svg">
  <sodipodi:namedview
     id="namedview7"
     pagecolor="#ffffff"
     bordercolor="#666666"
     borderopacity="1.0"
     inkscape:pageshadow="2"
     inkscape:pageopacity="0.0"
     inkscape:pagecheckerboard="0"
     inkscape:document-units="mm"
     showgrid="false"
     inkscape:zoom="4.6466891"
     inkscape:cx="18.830612"
     inkscape:cy="45.301072"
     inkscape:window-width="1440"
     inkscape:window-height="837"
     inkscape:window-x="1912"
     inkscape:window-y="-8"
     inkscape:window-maximized="1"
     inkscape:current-layer="layer1" />
  <defs
     id="defs2" />
  <g
     inkscape:label="Capa 1"
     inkscape:groupmode="layer"
     id="layer1"
     transform="translate(-90.565026,-29.777332)">
    <path
       style="fill:#000000;stroke-width:0.264583"
       d="m 96.369727,54.189965 c -2.125284,-0.399825 -3.208575,-0.964975 -4.108273,-2.143276 -1.796858,-2.353272 -2.20097,-5.599649 -1.046047,-8.403275 0.600667,-1.458145 0.654053,-1.927915 0.655178,-5.765228 0.0013,-4.57445 0.26639,-5.611 1.728915,-6.761422 1.522022,-1.197223 2.706091,-1.418873 7.03927,-1.317708 4.37173,0.102066 5.39809,0.382385 6.75969,1.846214 0.98349,1.057338 1.1421,1.949663 1.1421,6.425485 0,3.878601 0.0589,4.44521 0.58226,5.605172 0.87939,1.948922 0.8318,4.792977 -0.11238,6.715889 -0.94452,1.923619 -2.02328,3.058181 -3.27902,3.448616 -1.02777,0.319559 -8.11456,0.584153 -9.361693,0.349533 z m 0.442479,-1.26574 c -1.139085,-0.336992 -2.414185,-0.866394 -2.833557,-1.176449 -0.948536,-0.701283 -1.146197,-0.711485 -0.787167,-0.04063 0.358596,0.670044 1.127388,1.081317 2.78137,1.487924 2.392524,0.588169 3.038438,0.379743 0.839354,-0.270841 z m 7.265814,-5.37694 c 0.77963,-2.103836 1.2803,-3.094666 1.60689,-3.180071 0.26092,-0.06823 0.4744,-0.348297 0.4744,-0.622367 0,-0.427621 -0.20643,-0.498308 -1.45521,-0.498308 -1.27882,0 -1.45521,0.06414 -1.45521,0.529167 0,0.293981 0.17639,0.529167 0.39688,0.529167 0.50854,0 0.53402,-0.139787 -0.43913,2.408634 l -0.836,2.189263 -0.85095,-2.232803 c -0.65916,-1.729551 -0.76891,-2.252084 -0.48692,-2.318349 0.20022,-0.04705 0.36404,-0.314941 0.36404,-0.595312 0,-0.44151 -0.19485,-0.509767 -1.455208,-0.509767 -1.278819,0 -1.455208,0.06414 -1.455208,0.529167 0,0.325873 0.177882,0.530888 0.463021,0.533647 0.346954,0.0034 0.721427,0.716336 1.493875,2.844271 1.33471,3.676831 1.37259,3.745083 1.989,3.583889 0.37524,-0.09813 0.81774,-0.955899 1.64573,-3.190228 z m -3.73954,1.387796 c 0,-1.658056 -0.0237,-1.719792 -0.661461,-1.719792 -0.607562,0 -0.661459,0.09701 -0.661459,1.190625 v 1.190625 h -1.058333 -1.058333 v -2.614974 c 0,-2.392459 0.04503,-2.62675 0.529166,-2.753355 0.291042,-0.07611 0.529167,-0.328121 0.529167,-0.560025 0,-0.338956 -0.311329,-0.421646 -1.5875,-0.421646 -1.411111,0 -1.5875,0.0588 -1.5875,0.529167 0,0.327799 0.176197,0.528947 0.463021,0.52859 0.415721,-5.29e-4 0.454469,0.269765 0.379303,2.645833 -0.06588,2.082555 -0.164534,2.64641 -0.463021,2.64641 -0.208617,0 -0.379303,0.238125 -0.379303,0.529167 0,0.49557 0.176389,0.529167 2.778125,0.529167 h 2.778128 z m 5.2709,-7.474479 c -0.59946,-0.792717 -1.11565,-1.124479 -1.7496,-1.124479 -1.12743,0 -0.52179,0.893689 0.89355,1.318533 1.12247,0.336933 1.23782,0.310786 0.85605,-0.194054 z m -1.30215,-3.108854 c -0.2415,-0.290993 -0.24694,-0.396875 -0.0204,-0.396875 0.16995,0 0.60125,-0.292245 0.95844,-0.649432 1.14302,-1.143026 0.63914,-3.935745 -0.83098,-4.605575 -0.39338,-0.179234 -2.15469,-0.301243 -4.3487,-0.301243 -3.650723,0 -3.695604,0.0073 -4.494658,0.727604 -1.420248,1.280339 -1.323764,3.850212 0.170109,4.530866 0.393077,0.179098 0.582483,0.423021 0.46991,0.605166 -0.133875,0.216616 -0.0039,0.247212 0.448102,0.105466 1.372227,-0.430343 5.366967,-0.463763 6.457517,-0.05402 1.37074,0.51501 1.59235,0.522092 1.19063,0.03805 z m 2.00743,-6.661866 c -0.70712,-0.608235 -1.74285,-0.833062 -1.74285,-0.378321 0,0.12972 0.47625,0.426412 1.05833,0.659316 0.58209,0.232904 1.06774,0.573253 1.07923,0.756333 0.0141,0.224287 0.0696,0.209561 0.1701,-0.04514 0.0856,-0.216875 -0.15516,-0.639818 -0.56481,-0.992188 z"
       id="path928"
       sodipodi:nodetypes="ssscssssssssssssssssssssscssssscsssssscccsssssssssscsssssssssscssssssssssss" />
  </g>
</svg>
